<mxfile host="app.diagrams.net" modified="2022-09-23T23:50:09.195Z" agent="5.0 (Windows NT 10.0; Win64; x64) AppleWebKit/537.36 (KHTML, like Gecko) Chrome/104.0.5112.102 Safari/537.36 OPR/90.0.4480.100" etag="FanEm5CEIaf1vn7ctgme" version="20.3.6" type="github">
  <diagram name="Page-1" id="74e2e168-ea6b-b213-b513-2b3c1d86103e">
    <mxGraphModel dx="1557" dy="1823" grid="1" gridSize="10" guides="1" tooltips="1" connect="1" arrows="1" fold="1" page="1" pageScale="1" pageWidth="850" pageHeight="1400" background="none" math="0" shadow="0">
      <root>
        <mxCell id="0" />
        <mxCell id="1" parent="0" />
        <mxCell id="o94-ss8ouG5anhb22X3a-1" value="INICIO" style="ellipse;whiteSpace=wrap;html=1;" vertex="1" parent="1">
          <mxGeometry x="-415" y="-1330" width="160" height="80" as="geometry" />
        </mxCell>
        <mxCell id="o94-ss8ouG5anhb22X3a-2" value="&lt;h1&gt;&lt;span style=&quot;color: rgb(32, 33, 36); font-family: Roboto, arial, sans-serif; font-size: 13px; font-weight: 400; background-color: rgb(255, 255, 255);&quot;&gt;4 - Crie um programa que solicite duas notas do aluno, calcule a média e informe se o aluno&lt;br/&gt;está &quot;aprovado&quot; ou &quot;reprovado&quot; (média 6.0)&lt;/span&gt;&lt;br&gt;&lt;/h1&gt;" style="text;html=1;strokeColor=none;fillColor=none;spacing=5;spacingTop=-20;whiteSpace=wrap;overflow=hidden;rounded=0;" vertex="1" parent="1">
          <mxGeometry x="-820" y="-1350" width="330" height="120" as="geometry" />
        </mxCell>
        <mxCell id="o94-ss8ouG5anhb22X3a-11" value="" style="edgeStyle=orthogonalEdgeStyle;rounded=0;orthogonalLoop=1;jettySize=auto;html=1;" edge="1" parent="1" source="o94-ss8ouG5anhb22X3a-3" target="o94-ss8ouG5anhb22X3a-4">
          <mxGeometry relative="1" as="geometry" />
        </mxCell>
        <mxCell id="o94-ss8ouG5anhb22X3a-3" value="&quot;Informe a primeira nota do aluno&quot;" style="shape=display;whiteSpace=wrap;html=1;" vertex="1" parent="1">
          <mxGeometry x="-455" y="-1210" width="240" height="80" as="geometry" />
        </mxCell>
        <mxCell id="o94-ss8ouG5anhb22X3a-12" value="" style="edgeStyle=orthogonalEdgeStyle;rounded=0;orthogonalLoop=1;jettySize=auto;html=1;" edge="1" parent="1" source="o94-ss8ouG5anhb22X3a-4" target="o94-ss8ouG5anhb22X3a-5">
          <mxGeometry relative="1" as="geometry" />
        </mxCell>
        <mxCell id="o94-ss8ouG5anhb22X3a-4" value="NOTA1" style="shape=manualInput;whiteSpace=wrap;html=1;" vertex="1" parent="1">
          <mxGeometry x="-405" y="-1080" width="140" height="75" as="geometry" />
        </mxCell>
        <mxCell id="o94-ss8ouG5anhb22X3a-13" value="" style="edgeStyle=orthogonalEdgeStyle;rounded=0;orthogonalLoop=1;jettySize=auto;html=1;" edge="1" parent="1" source="o94-ss8ouG5anhb22X3a-5" target="o94-ss8ouG5anhb22X3a-6">
          <mxGeometry relative="1" as="geometry" />
        </mxCell>
        <mxCell id="o94-ss8ouG5anhb22X3a-5" value="&quot;Informe a segunda nota do aluno&quot;" style="shape=display;whiteSpace=wrap;html=1;" vertex="1" parent="1">
          <mxGeometry x="-455" y="-960" width="240" height="90" as="geometry" />
        </mxCell>
        <mxCell id="o94-ss8ouG5anhb22X3a-14" value="" style="edgeStyle=orthogonalEdgeStyle;rounded=0;orthogonalLoop=1;jettySize=auto;html=1;" edge="1" parent="1" source="o94-ss8ouG5anhb22X3a-6" target="o94-ss8ouG5anhb22X3a-7">
          <mxGeometry relative="1" as="geometry" />
        </mxCell>
        <mxCell id="o94-ss8ouG5anhb22X3a-6" value="NOTA2&lt;br&gt;" style="shape=manualInput;whiteSpace=wrap;html=1;" vertex="1" parent="1">
          <mxGeometry x="-405" y="-820" width="140" height="70" as="geometry" />
        </mxCell>
        <mxCell id="o94-ss8ouG5anhb22X3a-57" value="" style="edgeStyle=orthogonalEdgeStyle;rounded=0;orthogonalLoop=1;jettySize=auto;html=1;fontSize=13;" edge="1" parent="1" source="o94-ss8ouG5anhb22X3a-7" target="o94-ss8ouG5anhb22X3a-44">
          <mxGeometry relative="1" as="geometry" />
        </mxCell>
        <mxCell id="o94-ss8ouG5anhb22X3a-7" value="MEDIA = (NOTA1 +NOTA2)/2" style="rounded=0;whiteSpace=wrap;html=1;" vertex="1" parent="1">
          <mxGeometry x="-485" y="-700" width="300" height="80" as="geometry" />
        </mxCell>
        <mxCell id="o94-ss8ouG5anhb22X3a-9" value="FIM" style="ellipse;whiteSpace=wrap;html=1;" vertex="1" parent="1">
          <mxGeometry x="-410" y="-190" width="160" height="80" as="geometry" />
        </mxCell>
        <mxCell id="o94-ss8ouG5anhb22X3a-10" value="" style="endArrow=classic;html=1;rounded=0;exitX=0.5;exitY=1;exitDx=0;exitDy=0;entryX=0.496;entryY=-0.012;entryDx=0;entryDy=0;entryPerimeter=0;" edge="1" parent="1" source="o94-ss8ouG5anhb22X3a-1" target="o94-ss8ouG5anhb22X3a-3">
          <mxGeometry width="50" height="50" relative="1" as="geometry">
            <mxPoint x="-95" y="-1080" as="sourcePoint" />
            <mxPoint x="-45" y="-1130" as="targetPoint" />
          </mxGeometry>
        </mxCell>
        <mxCell id="o94-ss8ouG5anhb22X3a-47" style="edgeStyle=orthogonalEdgeStyle;rounded=0;orthogonalLoop=1;jettySize=auto;html=1;exitX=0;exitY=0.5;exitDx=0;exitDy=0;entryX=0;entryY=0;entryDx=127.5;entryDy=0;entryPerimeter=0;" edge="1" parent="1" source="o94-ss8ouG5anhb22X3a-44" target="o94-ss8ouG5anhb22X3a-46">
          <mxGeometry relative="1" as="geometry" />
        </mxCell>
        <mxCell id="o94-ss8ouG5anhb22X3a-55" value="NÃO" style="edgeLabel;html=1;align=center;verticalAlign=middle;resizable=0;points=[];fontSize=13;" vertex="1" connectable="0" parent="o94-ss8ouG5anhb22X3a-47">
          <mxGeometry x="-0.4828" y="1" relative="1" as="geometry">
            <mxPoint as="offset" />
          </mxGeometry>
        </mxCell>
        <mxCell id="o94-ss8ouG5anhb22X3a-49" style="edgeStyle=orthogonalEdgeStyle;rounded=0;orthogonalLoop=1;jettySize=auto;html=1;exitX=1;exitY=0.5;exitDx=0;exitDy=0;entryX=0;entryY=0;entryDx=127.5;entryDy=0;entryPerimeter=0;" edge="1" parent="1" source="o94-ss8ouG5anhb22X3a-44" target="o94-ss8ouG5anhb22X3a-48">
          <mxGeometry relative="1" as="geometry" />
        </mxCell>
        <mxCell id="o94-ss8ouG5anhb22X3a-54" value="SIM" style="edgeLabel;html=1;align=center;verticalAlign=middle;resizable=0;points=[];fontSize=13;" vertex="1" connectable="0" parent="o94-ss8ouG5anhb22X3a-49">
          <mxGeometry x="-0.3892" relative="1" as="geometry">
            <mxPoint as="offset" />
          </mxGeometry>
        </mxCell>
        <mxCell id="o94-ss8ouG5anhb22X3a-44" value="MEDIA=&amp;gt;6" style="rhombus;whiteSpace=wrap;html=1;" vertex="1" parent="1">
          <mxGeometry x="-410" y="-530" width="150" height="140" as="geometry" />
        </mxCell>
        <mxCell id="o94-ss8ouG5anhb22X3a-45" style="edgeStyle=orthogonalEdgeStyle;rounded=0;orthogonalLoop=1;jettySize=auto;html=1;exitX=0.5;exitY=1;exitDx=0;exitDy=0;" edge="1" parent="1" source="o94-ss8ouG5anhb22X3a-44" target="o94-ss8ouG5anhb22X3a-44">
          <mxGeometry relative="1" as="geometry" />
        </mxCell>
        <mxCell id="o94-ss8ouG5anhb22X3a-56" style="edgeStyle=orthogonalEdgeStyle;rounded=0;orthogonalLoop=1;jettySize=auto;html=1;exitX=0;exitY=0;exitDx=127.5;exitDy=90;exitPerimeter=0;entryX=0.5;entryY=0;entryDx=0;entryDy=0;fontSize=13;" edge="1" parent="1" source="o94-ss8ouG5anhb22X3a-46" target="o94-ss8ouG5anhb22X3a-9">
          <mxGeometry relative="1" as="geometry">
            <Array as="points">
              <mxPoint x="-528" y="-260" />
              <mxPoint x="-330" y="-260" />
            </Array>
          </mxGeometry>
        </mxCell>
        <mxCell id="o94-ss8ouG5anhb22X3a-46" value="&quot;Aluno Reprovado&quot;" style="shape=display;whiteSpace=wrap;html=1;" vertex="1" parent="1">
          <mxGeometry x="-655" y="-390" width="240" height="90" as="geometry" />
        </mxCell>
        <mxCell id="o94-ss8ouG5anhb22X3a-52" style="edgeStyle=orthogonalEdgeStyle;rounded=0;orthogonalLoop=1;jettySize=auto;html=1;exitX=0;exitY=0;exitDx=127.50000000000003;exitDy=90;exitPerimeter=0;entryX=0.5;entryY=0;entryDx=0;entryDy=0;" edge="1" parent="1" source="o94-ss8ouG5anhb22X3a-48" target="o94-ss8ouG5anhb22X3a-9">
          <mxGeometry relative="1" as="geometry">
            <mxPoint x="-310" y="-230" as="targetPoint" />
            <Array as="points">
              <mxPoint x="-152" y="-260" />
              <mxPoint x="-330" y="-260" />
            </Array>
          </mxGeometry>
        </mxCell>
        <mxCell id="o94-ss8ouG5anhb22X3a-48" value="&quot;Aluno Aprovado&quot;" style="shape=display;whiteSpace=wrap;html=1;" vertex="1" parent="1">
          <mxGeometry x="-280" y="-400" width="240" height="90" as="geometry" />
        </mxCell>
      </root>
    </mxGraphModel>
  </diagram>
</mxfile>
